<svg width="19" height="19" viewBox="0 0 19 19" fill="none" xmlns="http://www.w3.org/2000/svg">
<path fill-rule="evenodd" clip-rule="evenodd" d="M4.42572 12.3334L12.6639 17.1756C12.344 17.4461 11.9708 17.6895 11.5709 17.9059C10.5577 18.447 9.38465 18.7175 8.05161 18.7175C6.74522 18.7175 5.51882 18.4199 4.42572 17.7977V12.3334ZM18.4494 8.57277V18.4194H13.9437V15.7954C13.7304 16.12 13.4904 16.4176 13.1972 16.6881L8.87809 14.1723L18.4494 8.57277ZM3.75919 7.51751V17.3912C2.63943 16.6337 1.73296 15.6058 1.06644 14.2532C0.399914 12.9277 0.0533219 11.4129 0 9.70865L3.75919 7.51751ZM18.4488 0.457448V7.78829L12.6634 11.1697V1.7018C13.17 2.08051 13.5965 2.51333 13.9431 3.00025V0.457448H18.4488ZM3.09267 1.91848L7.54505 4.51538L0.0266609 8.92471C0.0533219 7.27459 0.399914 5.81383 1.06644 4.54243C1.59966 3.48744 2.29284 2.6218 3.09267 1.91848ZM8.10439 0.160156C9.41078 0.160156 10.5572 0.430667 11.5703 0.971689C11.7036 1.05284 11.8636 1.134 11.9969 1.2422V6.35485L3.70534 1.48566C3.78532 1.40451 3.89197 1.3504 3.97195 1.2963C5.19835 0.538872 6.58472 0.160156 8.10439 0.160156Z" fill="white"/>
</svg>
